PathFileType  4	(X/Y/Z) W:\OA_GaitRetraining\OpenSimAllSubjects\Subject_114\Gait\Week1\Files_W_HJCs\
DataRate	CameraRate	NumFrames	NumMarkers	Units	OrigDataRate	OrigDataStartFrame	OrigNumFrames
  100.0		  100.0		    4		     57		 mm	  100.0	      58	    460
Frame#	Time	r_knee			r_shank(antsup)			r_ankle			r_calc			r_5meta			r_toe			L_knee			L_shank(ant_sup)			L_ankle			L_calc			L_5meta			L_toe			r_mknee			r_mankle			L_mknee			L_mankle			r_sh2			r_sh3			r_sh4			L_sh2			L_sh3			r_thigh1			r_thigh2			r_thigh3			r_thigh4			r_thigh5			L_thigh1			L_thigh2			L_thigh3			L_thigh4			r.ASIS			r.PSIS			L.ASIS			L.PSIS			C7			R_Shoulder			L_Shoulder			R_Sternum			L_Sternum			R_HJC			L_HJC			R_HJC_reg			L_HJC_reg			midPSIS			midASIS			midHJC			midPelvis			R_KJC			L_KJC			R_AJC			L_AJC			R_AJC_proj			R_5meta_proj			R_toe_proj			L_AJC_proj			L_5meta_proj			L_toe_proj			
		X1	Y1	Z1	X2	Y2	Z2	X3	Y3	Z3	X4	Y4	Z4	X5	Y5	Z5	X6	Y6	Z6	X7	Y7	Z7	X8	Y8	Z8	X9	Y9	Z9	X10	Y10	Z10	X11	Y11	Z11	X12	Y12	Z12	X13	Y13	Z13	X14	Y14	Z14	X15	Y15	Z15	X16	Y16	Z16	X17	Y17	Z17	X18	Y18	Z18	X19	Y19	Z19	X20	Y20	Z20	X21	Y21	Z21	X22	Y22	Z22	X23	Y23	Z23	X24	Y24	Z24	X25	Y25	Z25	X26	Y26	Z26	X27	Y27	Z27	X28	Y28	Z28	X29	Y29	Z29	X30	Y30	Z30	X31	Y31	Z31	X32	Y32	Z32	X33	Y33	Z33	X34	Y34	Z34	X35	Y35	Z35	X36	Y36	Z36	X37	Y37	Z37	X38	Y38	Z38	X39	Y39	Z39	X40	Y40	Z40	X41	Y41	Z41	X42	Y42	Z42	X43	Y43	Z43	X44	Y44	Z44	X45	Y45	Z45	X46	Y46	Z46	X47	Y47	Z47	X48	Y48	Z48	X49	Y49	Z49	X50	Y50	Z50	X51	Y51	Z51	X52	Y52	Z52	X53	Y53	Z53	X54	Y54	Z54	X55	Y55	Z55	X56	Y56	Z56	X57	Y57	Z57	

58	0.57000	1165.254	502.767	-319.815	1218.579	435.648	-322.344	1249.564	111.256	-322.964	1194.482	67.726	-371.575	1361.217	40.303	-301.477	1429.171	81.242	-361.583	980.659	486.763	-692.068	989.844	420.049	-665.578	808.432	115.851	-658.584	739.833	74.876	-599.638	893.916	42.900	-692.304	967.461	78.594	-641.092	1221.870	500.635	-458.393	1290.417	128.833	-411.690	989.261	471.935	-540.473	837.836	122.147	-563.179	1235.847	326.669	-311.134	1138.904	423.087	-314.024	1155.442	307.733	-307.479	910.863	453.373	-699.609	877.961	336.607	-707.391	1130.951	781.598	-292.541	1171.894	689.582	-298.657	1130.466	631.924	-288.901	1027.333	736.341	-293.620	1069.569	634.677	-303.187	1105.522	710.407	-704.943	1085.698	585.259	-678.889	1015.015	728.042	-752.795	976.071	602.777	-720.502	1152.802	953.207	-345.006	908.899	1020.297	-464.673	1159.242	948.334	-687.797	907.092	1024.384	-552.751	959.761	1399.028	-517.267	1065.998	1405.760	-405.336	1059.967	1384.227	-645.625	1111.830	1328.041	-502.367	1111.828	1331.198	-549.045	1043.419	864.652	-425.413	1039.398	846.296	-609.799	1060.771	852.692	-398.391	1056.135	863.180	-624.405	907.996	1022.340	-508.712	1156.022	950.771	-516.401	1041.408	855.474	-517.606	1032.009	986.555	-512.557	1193.562	501.701	-389.104	984.960	479.349	-616.271	1269.990	120.044	-367.327	823.134	118.999	-610.882	1269.990	0.000	-367.327	1361.217	0.000	-301.477	1429.171	0.000	-361.583	823.134	0.000	-610.882	893.916	0.000	-692.304	967.461	0.000	-641.092
59	0.58000	1165.251	502.799	-319.803	1218.638	435.404	-322.668	1249.504	111.113	-323.024	1194.411	67.659	-371.566	1361.222	40.186	-301.601	1429.195	81.058	-361.598	980.734	486.731	-692.024	989.837	419.961	-666.085	808.350	115.934	-658.647	739.841	74.845	-599.669	893.909	42.864	-692.382	967.427	78.587	-641.112	1221.890	500.622	-458.370	1290.363	128.827	-411.696	989.410	472.180	-540.190	837.843	122.120	-563.100	1235.810	326.572	-311.164	1138.908	423.089	-314.011	1155.414	307.681	-307.501	910.835	453.396	-699.948	878.042	336.581	-707.419	1130.905	781.667	-292.609	1171.938	689.584	-298.689	1130.414	631.906	-288.978	1027.331	736.370	-293.646	1069.532	634.706	-303.205	1105.532	710.382	-704.972	1085.667	585.192	-678.954	1014.889	728.001	-752.890	976.084	602.705	-720.566	1152.810	953.141	-345.107	908.903	1020.267	-464.721	1159.310	948.268	-687.887	907.032	1024.410	-552.868	959.834	1398.950	-517.310	1065.916	1405.746	-405.448	1060.043	1384.220	-645.676	1111.830	1328.041	-502.367	1111.805	1331.221	-549.076	1043.399	864.611	-425.509	1039.384	846.266	-609.896	1060.883	852.554	-398.482	1056.086	863.178	-624.480	907.968	1022.338	-508.794	1156.060	950.705	-516.497	1041.392	855.439	-517.702	1032.014	986.522	-512.646	1193.571	501.710	-389.086	985.072	479.455	-616.107	1269.934	119.970	-367.360	823.096	119.027	-610.874	1269.934	0.000	-367.360	1361.222	0.000	-301.601	1429.195	0.000	-361.598	823.096	0.000	-610.874	893.909	0.000	-692.382	967.427	0.000	-641.112
60	0.59000	1165.284	502.884	-319.821	1218.596	435.672	-322.456	1249.614	111.295	-322.943	1194.479	67.733	-371.603	1361.265	40.359	-301.354	1429.173	81.146	-361.518	980.762	486.630	-692.038	989.944	419.935	-666.320	808.358	115.814	-658.604	739.827	74.760	-599.671	893.873	42.927	-692.317	967.444	78.616	-641.076	1221.911	500.655	-458.413	1290.288	128.750	-411.750	989.381	471.893	-540.466	837.738	122.047	-563.189	1235.876	326.683	-311.140	1138.895	423.088	-314.043	1155.415	307.643	-307.530	910.948	453.221	-699.843	877.989	336.539	-707.433	1130.847	781.587	-292.631	1171.899	689.662	-298.752	1130.353	631.937	-289.059	1027.290	736.362	-293.637	1069.581	634.735	-303.258	1105.452	710.244	-705.054	1085.710	585.195	-678.975	1014.973	727.922	-752.946	976.075	602.614	-720.613	1152.818	953.080	-345.184	908.788	1020.359	-464.959	1159.327	948.267	-687.959	907.098	1024.341	-552.905	959.816	1398.942	-517.420	1065.883	1405.724	-405.506	1059.896	1384.184	-645.790	1111.830	1328.041	-502.367	1111.828	1331.198	-549.045	1043.359	864.596	-425.617	1039.381	846.260	-610.006	1060.547	852.840	-398.572	1056.202	863.073	-624.593	907.943	1022.350	-508.932	1156.073	950.674	-516.572	1041.370	855.428	-517.812	1032.008	986.512	-512.752	1193.598	501.770	-389.117	985.071	479.262	-616.252	1269.951	120.022	-367.346	823.048	118.931	-610.897	1269.951	0.000	-367.346	1361.265	0.000	-301.354	1429.173	0.000	-361.518	823.048	0.000	-610.897	893.873	0.000	-692.317	967.444	0.000	-641.076
61	0.60000	1165.242	502.806	-319.897	1218.595	435.665	-322.326	1249.515	111.184	-322.888	1194.417	67.704	-371.620	1361.269	40.177	-301.469	1429.185	81.225	-361.563	980.795	486.625	-692.120	990.003	419.949	-666.482	808.155	115.788	-658.635	739.756	74.685	-599.755	893.834	42.933	-692.296	967.397	78.689	-641.079	1221.863	500.588	-458.457	1290.355	128.792	-411.692	989.383	471.891	-540.401	837.738	122.047	-563.189	1235.829	326.656	-311.120	1138.830	423.035	-314.014	1155.396	307.665	-307.485	910.948	453.062	-699.847	878.060	336.390	-707.448	1130.841	781.604	-292.667	1171.883	689.646	-298.805	1130.358	631.941	-289.087	1027.284	736.190	-294.030	1069.545	634.700	-303.317	1105.540	710.200	-705.094	1085.824	585.063	-678.983	1014.959	727.732	-752.983	976.118	602.482	-720.669	1152.833	953.127	-345.267	908.730	1020.322	-465.042	1159.330	948.209	-688.018	907.060	1024.342	-552.985	959.830	1398.858	-517.436	1065.930	1405.742	-405.518	1059.899	1384.172	-645.880	1111.830	1328.041	-502.367	1111.850	1331.273	-549.087	1043.356	864.608	-425.662	1039.375	846.223	-610.046	1060.576	852.732	-398.718	1056.283	863.062	-624.721	907.895	1022.332	-509.013	1156.081	950.668	-516.643	1041.365	855.416	-517.854	1031.988	986.500	-512.828	1193.552	501.697	-389.177	985.089	479.258	-616.261	1269.935	119.988	-367.290	822.947	118.918	-610.912	1269.935	0.000	-367.290	1361.269	0.000	-301.469	1429.185	0.000	-361.563	822.947	0.000	-610.912	893.834	0.000	-692.296	967.397	0.000	-641.079
